<svg xmlns="http://www.w3.org/2000/svg" width="33.313" height="33.313" viewBox="0 0 33.313 33.313">
  <g id="call" transform="translate(33.313 16.658) rotate(135)">
    <path id="Path_31" data-name="Path 31" d="M18.873,23.558a9.908,9.908,0,0,1-4.628-1.578,30.087,30.087,0,0,1-7.268-5.436A27.58,27.58,0,0,1,1.52,9.278C-.417,5.755-.087,3.908.282,3.119A4.917,4.917,0,0,1,2.209,1.051a9.271,9.271,0,0,1,1.506-.8L3.86.188A1.407,1.407,0,0,1,5.015.083a3.381,3.381,0,0,1,1.1.841A18.231,18.231,0,0,1,8.854,5a4.056,4.056,0,0,1,.538,1.667,2.635,2.635,0,0,1-.67,1.568c-.069.094-.137.184-.2.271-.4.526-.488.678-.43.949a9.975,9.975,0,0,0,2.429,3.6,9.562,9.562,0,0,0,3.561,2.37c.283.06.438-.031.981-.445.078-.059.158-.121.241-.182a2.649,2.649,0,0,1,1.591-.712h0a3.81,3.81,0,0,1,1.675.588A20.088,20.088,0,0,1,22.626,17.4a3.38,3.38,0,0,1,.844,1.094,1.418,1.418,0,0,1-.105,1.157c-.019.044-.041.091-.064.145a9.281,9.281,0,0,1-.8,1.5,4.917,4.917,0,0,1-2.071,1.924,3.545,3.545,0,0,1-1.554.34Z" fill="#fff"/>
  </g>
</svg>
