<svg id="phone" xmlns="http://www.w3.org/2000/svg" width="23.785" height="23.785" viewBox="0 0 23.785 23.785">
  <path id="Path_6" data-name="Path 6" d="M23.785,18.785a5.576,5.576,0,0,1-.169,1.191,6.711,6.711,0,0,1-.355,1.157A4.529,4.529,0,0,1,21.2,22.924a6.55,6.55,0,0,1-3.142.862,6.7,6.7,0,0,1-.9-.059,6.941,6.941,0,0,1-.971-.211q-.532-.152-.794-.245t-.938-.346q-.676-.253-.828-.3a15.3,15.3,0,0,1-2.956-1.4,25.463,25.463,0,0,1-4.46-3.649,25.462,25.462,0,0,1-3.649-4.46,15.3,15.3,0,0,1-1.4-2.956q-.051-.152-.3-.828T.515,8.387Q.422,8.126.27,7.593a6.941,6.941,0,0,1-.211-.971A6.7,6.7,0,0,1,0,5.727,6.55,6.55,0,0,1,.862,2.585,4.529,4.529,0,0,1,2.652.524,6.711,6.711,0,0,1,3.809.169,5.576,5.576,0,0,1,5,0a.946.946,0,0,1,.355.051q.3.1.9,1.284.186.321.507.912t.591,1.073q.27.481.524.9.051.068.3.422a4.718,4.718,0,0,1,.363.6,1.1,1.1,0,0,1,.118.481,1.4,1.4,0,0,1-.481.845A8.235,8.235,0,0,1,7.12,7.5a10.174,10.174,0,0,0-1.047.9,1.287,1.287,0,0,0-.481.777,1.141,1.141,0,0,0,.084.38A3.688,3.688,0,0,0,5.82,9.9q.059.118.237.405t.194.321A17.732,17.732,0,0,0,9.19,14.6a17.732,17.732,0,0,0,3.97,2.939q.034.017.321.194t.405.237a3.688,3.688,0,0,0,.346.144,1.141,1.141,0,0,0,.38.084,1.287,1.287,0,0,0,.777-.481,10.173,10.173,0,0,0,.9-1.047,8.235,8.235,0,0,1,.929-1.047,1.4,1.4,0,0,1,.845-.481,1.1,1.1,0,0,1,.481.118,4.718,4.718,0,0,1,.6.363q.355.245.422.3.422.253.9.524t1.073.591q.591.321.912.507,1.183.591,1.284.9A.946.946,0,0,1,23.785,18.785Z" fill="#3acebe"/>
</svg>
