<svg id="send" xmlns="http://www.w3.org/2000/svg" width="18.977" height="18.977" viewBox="0 0 18.977 18.977">
  <path id="Path_6" data-name="Path 6" d="M18.678.116a.662.662,0,0,1,.286.678L16.253,17.06a.668.668,0,0,1-.339.477.65.65,0,0,1-.328.085.713.713,0,0,1-.254-.053l-4.8-1.959L7.972,18.733a.624.624,0,0,1-.519.244.572.572,0,0,1-.233-.042.678.678,0,0,1-.445-.635V14.6L15.925,3.389,4.6,13.184.422,11.469a.67.67,0,0,1-.085-1.207L17.958.1A.648.648,0,0,1,18.3,0,.657.657,0,0,1,18.678.116Z" transform="translate(0.003)" fill="#d2d2d2"/>
</svg>
