<svg id="soundwave" xmlns="http://www.w3.org/2000/svg" width="44.5" height="41.077" viewBox="0 0 44.5 41.077">
  <g id="Group_27" data-name="Group 27">
    <path id="Path_16" data-name="Path 16" d="M28.25,6a1.712,1.712,0,0,1,1.712,1.712V45.365a1.712,1.712,0,1,1-3.423,0V7.712A1.712,1.712,0,0,1,28.25,6ZM21.4,12.846a1.712,1.712,0,0,1,1.712,1.712V38.519a1.712,1.712,0,1,1-3.423,0V14.558A1.712,1.712,0,0,1,21.4,12.846Zm13.692,0a1.712,1.712,0,0,1,1.712,1.712V38.519a1.712,1.712,0,1,1-3.423,0V14.558A1.712,1.712,0,0,1,35.1,12.846ZM14.558,17.981a1.712,1.712,0,0,1,1.712,1.712V33.385a1.712,1.712,0,0,1-3.423,0V19.692A1.712,1.712,0,0,1,14.558,17.981Zm27.385,0a1.712,1.712,0,0,1,1.712,1.712V33.385a1.712,1.712,0,0,1-3.423,0V19.692A1.712,1.712,0,0,1,41.942,17.981ZM7.712,21.4a1.712,1.712,0,0,1,1.712,1.712v6.846a1.712,1.712,0,1,1-3.423,0V23.115A1.712,1.712,0,0,1,7.712,21.4Zm41.077,0A1.712,1.712,0,0,1,50.5,23.115v6.846a1.712,1.712,0,1,1-3.423,0V23.115A1.712,1.712,0,0,1,48.788,21.4Z" transform="translate(-6 -6)" fill-rule="evenodd"/>
  </g>
</svg>
