<svg xmlns="http://www.w3.org/2000/svg" width="29.552" height="27.582" viewBox="0 0 29.552 27.582">
  <g id="user-profile" transform="translate(-3 -3)">
    <path id="Path_124" data-name="Path 124" d="M14.4,4.97A4.925,4.925,0,1,1,9.47,9.9,4.925,4.925,0,0,1,14.4,4.97M14.4,3a6.9,6.9,0,1,0,6.9,6.9A6.9,6.9,0,0,0,14.4,3Z" transform="translate(-1.545 0)"/>
    <path id="Path_125" data-name="Path 125" d="M22.7,38.821h-1.97V33.9a4.925,4.925,0,0,0-4.925-4.925H9.9A4.925,4.925,0,0,0,4.97,33.9v4.925H3V33.9A6.9,6.9,0,0,1,9.9,27h5.91a6.9,6.9,0,0,1,6.9,6.9Z" transform="translate(0 -8.239)"/>
    <path id="Path_126" data-name="Path 126" d="M33,6h9.851V7.97H33Z" transform="translate(-10.299 -1.03)"/>
    <path id="Path_127" data-name="Path 127" d="M33,13.5h9.851v1.97H33Z" transform="translate(-10.299 -3.605)"/>
    <path id="Path_128" data-name="Path 128" d="M33,21h6.9v1.97H33Z" transform="translate(-10.299 -6.179)"/>
  </g>
</svg>
